<svg width="31" height="39" viewBox="0 0 31 39" fill="none" xmlns="http://www.w3.org/2000/svg">
<path fill-rule="evenodd" clip-rule="evenodd" d="M14.6236 0.435669C22.8054 0.435669 30.0781 6.7993 30.0781 14.9811C30.0781 23.1629 19.169 38.6175 14.6236 38.6175C10.9872 38.6175 0.078125 23.1629 0.078125 14.9811C0.078125 6.7993 6.44176 0.435669 14.6236 0.435669V0.435669Z" fill="#EF7F1A"/>
<path d="M14.6236 27.7084C21.1506 27.7084 26.4418 22.4172 26.4418 15.8902C26.4418 9.3632 21.1506 4.07202 14.6236 4.07202C8.0966 4.07202 2.80542 9.3632 2.80542 15.8902C2.80542 22.4172 8.0966 27.7084 14.6236 27.7084Z" fill="#FEFEFE"/>
<path fill-rule="evenodd" clip-rule="evenodd" d="M21.8964 12.2539H16.4418L12.8054 9.52661L10.0782 11.3448V10.4357H8.25999V13.163L5.53271 14.9812H8.25999V21.3448H21.8964V14.9812H24.6236L21.8964 12.2539ZM16.4418 14.9812H20.9873V20.4357H16.4418V14.9812ZM12.8054 11.3448L16.4418 14.0721H9.16908L12.8054 11.3448ZM10.0782 14.9812H15.5327V20.4357H10.0782V14.9812Z" fill="#EF7F1A"/>
<path fill-rule="evenodd" clip-rule="evenodd" d="M21.8964 12.2539H16.4418L12.8054 9.52661L10.0782 11.3448V10.4357H8.25999V13.163L5.53271 14.9812H21.8964H24.6236L21.8964 12.2539ZM12.8054 11.3448L16.4418 14.0721H9.16908L12.8054 11.3448Z" fill="#5B5B5B"/>
</svg>
